<svg width="32" height="32" viewBox="0 0 32 32" fill="none" xmlns="http://www.w3.org/2000/svg">
  <rect width="32" height="32" rx="6" fill="url(#gradient)"/>
  <path d="M8 10C8 9.44772 8.44772 9 9 9H23C23.5523 9 24 9.44772 24 10V22C24 22.5523 23.5523 23 23 23H9C8.44772 23 8 22.5523 8 22V10Z" fill="white" fill-opacity="0.9"/>
  <path d="M10 11H22V21H10V11Z" fill="url(#gradient2)"/>
  <circle cx="13" cy="14" r="1.5" fill="white"/>
  <circle cx="19" cy="14" r="1.5" fill="white"/>
  <path d="M12 18L16 15L20 18" stroke="white" stroke-width="2" stroke-linecap="round" stroke-linejoin="round"/>
  <defs>
    <linearGradient id="gradient" x1="0%" y1="0%" x2="100%" y2="100%">
      <stop offset="0%" style="stop-color:#8B5CF6"/>
      <stop offset="100%" style="stop-color:#EC4899"/>
    </linearGradient>
    <linearGradient id="gradient2" x1="0%" y1="0%" x2="100%" y2="100%">
      <stop offset="0%" style="stop-color:#8B5CF6"/>
      <stop offset="100%" style="stop-color:#EC4899"/>
    </linearGradient>
  </defs>
</svg>
